# xmcd CD database file generated by Grip 3.2.0
# 
# Track frame offsets:
#       150
#       18597
#       39170
#       68878
#       89048
#       109360
#       128337
#       152516
#       171170
#       193907
# 
# Disc length: 2819 seconds
# 
# Revision: 4
# Processed by: cddbd v1.5.2PL0 Copyright (c) Steve Scherf et al.
# Submitted via: Grip 3.2.0
# 
DISCID=810b010a
DTITLE=Fischerspooner - Entertainment
DYEAR=2009
DGENRE=Electronic
TTITLE0=The Best Revenge
TTITLE1=We Are Electric
TTITLE2=Money Can't Dance
TTITLE3=In A Modern World
TTITLE4=Supply and Demand
TTITLE5=Amuse Bouche
TTITLE6=Infidels Of The Wold Unite
TTITLE7=Door Train Home
TTITLE8=Danse En France
TTITLE9=To The Moon
EXTD=
EXTT0=
EXTT1=
EXTT2=
EXTT3=
EXTT4=
EXTT5=
EXTT6=
EXTT7=
EXTT8=
EXTT9=
PLAYORDER=
